<svg width="1" height="1" viewBox="0 0 1 1" fill="none" xmlns="http://www.w3.org/2000/svg">
<path d="M0.998094 0.119146C0.961313 0.138985 0.921938 0.152634 0.880438 0.158824C0.922781 0.127566 0.955156 0.0781238 0.970594 0.0192234C0.930875 0.047674 0.886938 0.0682814 0.840219 0.0799308C0.802969 0.0308727 0.749719 0 0.690625 0C0.577344 0 0.485531 0.112918 0.485531 0.252095C0.485531 0.272126 0.4875 0.291349 0.490906 0.309573C0.3205 0.299769 0.169438 0.199039 0.0684063 0.0468666C0.0506563 0.0839293 0.0405625 0.12699 0.0405625 0.173856C0.0405625 0.261553 0.0768437 0.338447 0.131687 0.38366C0.0981562 0.382468 0.0665937 0.37105 0.0389375 0.352249V0.355286C0.0389375 0.477586 0.109563 0.579546 0.203313 0.602768C0.186219 0.608343 0.167969 0.611572 0.149438 0.611572C0.136281 0.611572 0.123719 0.609996 0.111188 0.607151C0.137563 0.707266 0.213062 0.780162 0.303062 0.782353C0.233094 0.849827 0.144406 0.890042 0.0488437 0.890042C0.0325625 0.890042 0.0163125 0.889081 0 0.886659C0.0911563 0.95817 0.19875 1 0.314969 1C0.692062 1 0.898125 0.615725 0.898125 0.28293C0.898125 0.272318 0.898125 0.261515 0.897469 0.250673C0.937687 0.215417 0.9725 0.170742 1 0.120108L0.998094 0.119146Z" fill="url(#paint0_linear_1_19)"/>
<defs>
<linearGradient id="paint0_linear_1_19" x1="0.5" y1="0" x2="0.5" y2="1" gradientUnits="userSpaceOnUse">
<stop stop-color="#06E5F3" stop-opacity="0.99"/>
<stop offset="0.25" stop-color="#8C9CEF" stop-opacity="0.233064"/>
<stop offset="1" stop-color="#EA0380"/>
</linearGradient>
</defs>
</svg>
